<svg width="24" height="24" viewBox="0 0 24 24" fill="none" xmlns="http://www.w3.org/2000/svg">
<g opacity="0.64">
<path fill-rule="evenodd" clip-rule="evenodd" d="M3.66675 7.83342C3.66675 6.91294 4.41294 6.16675 5.33341 6.16675H18.6667C19.5872 6.16675 20.3334 6.91294 20.3334 7.83341V8.66675H3.66675V7.83342ZM3.66675 11.1667H20.3334V16.1667C20.3334 17.0872 19.5872 17.8334 18.6667 17.8334H5.33341C4.41294 17.8334 3.66675 17.0872 3.66675 16.1667V11.1667ZM16.1667 13.6667C15.7065 13.6667 15.3334 14.0398 15.3334 14.5001C15.3334 14.9603 15.7065 15.3334 16.1667 15.3334H17.8334C18.2937 15.3334 18.6667 14.9603 18.6667 14.5001C18.6667 14.0398 18.2937 13.6667 17.8334 13.6667H16.1667Z" fill="#010F07"/>
</g>
</svg>
