<svg width="34" height="34" viewBox="0 0 34 34" fill="none" xmlns="http://www.w3.org/2000/svg">
<rect width="34" height="34" fill="#F2E6E6"/>
<g id="Beta version">
<path d="M-3473 -1330C-3473 -1331.1 -3472.1 -1332 -3471 -1332H3763C3764.1 -1332 3765 -1331.1 3765 -1330V785C3765 786.104 3764.1 787 3763 787H-3471C-3472.1 787 -3473 786.104 -3473 785V-1330Z" fill="#E9DDFF"/>
<path d="M-3471 -1331H3763V-1333H-3471V-1331ZM3764 -1330V785H3766V-1330H3764ZM3763 786H-3471V788H3763V786ZM-3472 785V-1330H-3474V785H-3472ZM-3471 786C-3471.55 786 -3472 785.552 -3472 785H-3474C-3474 786.657 -3472.66 788 -3471 788V786ZM3764 785C3764 785.552 3763.55 786 3763 786V788C3764.66 788 3766 786.657 3766 785H3764ZM3763 -1331C3763.55 -1331 3764 -1330.55 3764 -1330H3766C3766 -1331.66 3764.66 -1333 3763 -1333V-1331ZM-3471 -1333C-3472.66 -1333 -3474 -1331.66 -3474 -1330H-3472C-3472 -1330.55 -3471.55 -1331 -3471 -1331V-1333Z" fill="white"/>
<g id="10-Homepage" clip-path="url(#clip0_0_1)">
<rect width="375" height="812" transform="translate(-42 -753)" fill="white"/>
<g id="Frame 15">
<g id="Frame 14">
<g id="Frame 12">
</g>
</g>
</g>
<g id="Tab bar/2">
<g id="Tab bar/2_2">
<g id="Rectangle" filter="url(#filter0_di_0_1)">
<rect x="-42" y="-6" width="375" height="88" fill="white"/>
</g>
<g id="Home">
<path id="Active" opacity="0.2" fill-rule="evenodd" clip-rule="evenodd" d="M11 24C15.9706 24 18.5 15.5 14 12C9.5 8.5 16.9706 4 12 4C7.02944 4 2 10.0294 2 15C2 19.9706 6.02944 24 11 24Z" fill="white"/>
<g id="icon/34/home">
<g id="icon/34/food">
<path id="food" fill-rule="evenodd" clip-rule="evenodd" d="M11.4502 12.5025L11 8H10V12.5C10 14.433 11.567 16 13.5 16C15.433 16 17 14.433 17 12.5V8H16L15.5498 12.5025C15.5215 12.7849 15.2838 13 15 13C14.7162 13 14.4785 12.7849 14.4502 12.5025L14 8H13L12.5498 12.5025C12.5215 12.7849 12.2838 13 12 13C11.7162 13 11.4785 12.7849 11.4502 12.5025ZM14.5555 18.9985C14.5243 18.4383 14.061 18 13.5 18C12.939 18 12.4757 18.4383 12.4445 18.9985L12.0832 25.5023C12.0817 25.5285 12.081 25.5548 12.081 25.581C12.081 26.3647 12.7163 27 13.5 27C13.5263 27 13.5525 26.9993 13.5787 26.9978C14.3612 26.9543 14.9603 26.2848 14.9168 25.5023L14.5555 18.9985ZM22.5 20C23.0634 20 23.5311 20.4354 23.5712 20.9975L23.8931 25.5038C23.9481 26.2732 23.3689 26.9415 22.5995 26.9965C22.5664 26.9988 22.5332 27 22.5 27C21.7286 27 21.1033 26.3747 21.1033 25.6033C21.1033 25.5701 21.1045 25.5369 21.1069 25.5038L21.4288 20.9975C21.4689 20.4354 21.9366 20 22.5 20ZM24 18V8C21.7909 8 20 9.79086 20 12V18H24Z" fill="#868686"/>
</g>
</g>
</g>
</g>
</g>
</g>
</g>
<defs>
<filter id="filter0_di_0_1" x="-46" y="-12" width="383" height="96" filterUnits="userSpaceOnUse" color-interpolation-filters="sRGB">
<feFlood flood-opacity="0" result="BackgroundImageFix"/>
<feColorMatrix in="SourceAlpha" type="matrix" values="0 0 0 0 0 0 0 0 0 0 0 0 0 0 0 0 0 0 127 0" result="hardAlpha"/>
<feOffset dy="-2"/>
<feGaussianBlur stdDeviation="2"/>
<feColorMatrix type="matrix" values="0 0 0 0 0 0 0 0 0 0 0 0 0 0 0 0 0 0 0.04 0"/>
<feBlend mode="normal" in2="BackgroundImageFix" result="effect1_dropShadow_0_1"/>
<feBlend mode="normal" in="SourceGraphic" in2="effect1_dropShadow_0_1" result="shape"/>
<feColorMatrix in="SourceAlpha" type="matrix" values="0 0 0 0 0 0 0 0 0 0 0 0 0 0 0 0 0 0 127 0" result="hardAlpha"/>
<feOffset dy="1"/>
<feComposite in2="hardAlpha" operator="arithmetic" k2="-1" k3="1"/>
<feColorMatrix type="matrix" values="0 0 0 0 0 0 0 0 0 0 0 0 0 0 0 0 0 0 0.1 0"/>
<feBlend mode="normal" in2="shape" result="effect2_innerShadow_0_1"/>
</filter>
<clipPath id="clip0_0_1">
<rect width="375" height="812" fill="white" transform="translate(-42 -753)"/>
</clipPath>
</defs>
</svg>
