<svg width="24" height="24" viewBox="0 0 24 24" fill="none" xmlns="http://www.w3.org/2000/svg">
<g id="icon/24/rating">
<path id="Star" fill-rule="evenodd" clip-rule="evenodd" d="M12 17.0001L8.59634 18.7895C8.18897 19.0037 7.68511 18.8471 7.47094 18.4397C7.38566 18.2775 7.35623 18.0917 7.38721 17.911L8.03725 14.121L5.28364 11.4369C4.95407 11.1157 4.94733 10.5881 5.26858 10.2585C5.3965 10.1273 5.56412 10.0419 5.74548 10.0155L9.55088 9.46255L11.2527 6.01427C11.4564 5.60156 11.9561 5.43211 12.3688 5.6358C12.5331 5.71691 12.6662 5.84993 12.7473 6.01427L14.4491 9.46255L18.2545 10.0155C18.7099 10.0817 19.0255 10.5046 18.9593 10.96C18.933 11.1414 18.8476 11.309 18.7163 11.4369L15.9627 14.121L16.6128 17.911C16.6906 18.3647 16.3859 18.7955 15.9323 18.8733C15.7517 18.9042 15.5659 18.8748 15.4036 18.7895L12 17.0001Z" fill="#EEA734"/>
</g>
</svg>
